<svg xmlns="http://www.w3.org/2000/svg" width="64" height="54.305" viewBox="0 0 64 54.305"><defs><style>.a{fill:#013600;}</style></defs><g transform="translate(0 12.501)"><g transform="translate(0 -12.501)"><path class="a" d="M32,56.8a.965.965,0,0,1-.741-.345L.229,19.609A.968.968,0,0,1,.194,18.4L11.83,2.888a.969.969,0,0,1,.776-.388H51.394a.969.969,0,0,1,.776.388L63.806,18.4a.968.968,0,0,1-.035,1.206L32.741,56.458A.965.965,0,0,1,32,56.8ZM2.209,18.95,32,54.328,61.791,18.95,50.909,4.439H13.091Z" transform="translate(0 -2.498)"/><path class="a" d="M63.03,12.439H.97a.97.97,0,0,1,0-1.939H63.03a.97.97,0,0,1,0,1.939Z" transform="translate(0 5.017)"/><path class="a" d="M16.969,49.288a.938.938,0,0,1-.291-.045.966.966,0,0,1-.632-1.216L27.683,11.179a.969.969,0,0,1,1.848.584L17.895,48.611A.97.97,0,0,1,16.969,49.288Z" transform="translate(15.031 5.017)"/><path class="a" d="M22.606,49.289a.97.97,0,0,1-.925-.679L10.045,11.762a.969.969,0,0,1,1.848-.584L23.529,48.026a.97.97,0,0,1-.632,1.216A.887.887,0,0,1,22.606,49.289Z" transform="translate(9.394 5.016)"/><path class="a" d="M14.728,19.954a.97.97,0,0,1-.869-.535L6.1,3.9a.97.97,0,0,1,1.736-.867l7.758,15.515a.968.968,0,0,1-.867,1.4Z" transform="translate(5.636 -2.498)"/><path class="a" d="M10.969,19.954A.97.97,0,0,1,10.2,18.4L21.831,2.888a.97.97,0,0,1,1.552,1.164L11.747,19.566A.972.972,0,0,1,10.969,19.954Z" transform="translate(9.395 -2.498)"/><path class="a" d="M28.606,19.955a.966.966,0,0,1-.776-.388L16.194,4.052a.97.97,0,0,1,1.552-1.164L29.382,18.4a.969.969,0,0,1-.194,1.358A.958.958,0,0,1,28.606,19.955Z" transform="translate(15.03 -2.499)"/><path class="a" d="M22.969,19.955a.971.971,0,0,1-.867-1.4L29.86,3.036A.97.97,0,0,1,31.6,3.9L23.838,19.418A.973.973,0,0,1,22.969,19.955Z" transform="translate(20.667 -2.499)"/></g></g></svg>