<svg xmlns="http://www.w3.org/2000/svg" width="50" height="50" viewBox="0 0 50 50"><defs><style>.a{fill:#fff;}</style></defs><path class="a" d="M292.18,508.668q-.66.108-1.325.2Q291.52,508.776,292.18,508.668Zm0,0" transform="translate(-262.853 -459.355)"/><path class="a" d="M299.97,507.793c-.21.039-.421.074-.631.11C299.55,507.867,299.76,507.832,299.97,507.793Zm0,0" transform="translate(-270.303 -458.661)"/><path class="a" d="M279.163,510.34q-.772.087-1.553.153Q278.389,510.428,279.163,510.34Zm0,0" transform="translate(-250.949 -460.683)"/><path class="a" d="M287.19,509.738c-.247.033-.5.064-.745.093C286.694,509.8,286.943,509.771,287.19,509.738Zm0,0" transform="translate(-258.693 -460.205)"/><path class="a" d="M307.222,506.41c-.185.039-.372.079-.558.117C306.85,506.489,307.036,506.45,307.222,506.41Zm0,0" transform="translate(-276.893 -457.563)"/><path class="a" d="M324.934,502.113c-.15.043-.3.083-.45.125C324.634,502.2,324.784,502.156,324.934,502.113Zm0,0" transform="translate(-292.947 -454.153)"/><path class="a" d="M319.549,503.543c-.163.043-.326.086-.49.127Q319.3,503.609,319.549,503.543Zm0,0" transform="translate(-288.062 -455.288)"/><path class="a" d="M312.587,505.254c-.172.04-.347.078-.521.117C312.241,505.332,312.415,505.294,312.587,505.254Zm0,0" transform="translate(-281.759 -456.646)"/><path class="a" d="M274.315,511.09q-.417.035-.835.063Q273.9,511.125,274.315,511.09Zm0,0" transform="translate(-247.01 -461.278)"/><path class="a" d="M50,25A25,25,0,1,0,25,50c.147,0,.293,0,.439-.006V30.533H20.068v-6.26h5.371V19.667c0-5.342,3.261-8.25,8.027-8.25a44.214,44.214,0,0,1,4.815.246v5.583H35c-2.592,0-3.094,1.232-3.094,3.04v3.987h6.2l-.808,6.26H31.9v18.5A25.013,25.013,0,0,0,50,25Zm0,0"/><path class="a" d="M266.546,511.43q-.824.053-1.655.082Q265.721,511.484,266.546,511.43Zm0,0" transform="translate(-239.481 -461.548)"/><path class="a" d="M261.381,511.836q-.438.015-.877.022Q260.943,511.851,261.381,511.836Zm0,0" transform="translate(-235.301 -461.87)"/></svg>