<svg xmlns="http://www.w3.org/2000/svg" width="64" height="58.319" viewBox="0 0 64 58.319"><defs><style>.a{fill:#013600;}</style></defs><g transform="translate(48 -17.723)"><g transform="translate(-48 17.723)"><path class="a" d="M63.7,77.985,50.25,56.122a2.006,2.006,0,0,0-3.416,0L45.088,58.96a.939.939,0,0,0,1.6.984l1.747-2.839a.128.128,0,0,1,.218,0L62.1,78.969a.128.128,0,0,1-.109.195h-7.45L33.708,45.3a2,2,0,0,0-.745-.71h0V38.217a8.679,8.679,0,0,0,2.287.3,17.688,17.688,0,0,0,6.109-1.473c2.719-1.009,5.286-1.962,8.064-.849a1.162,1.162,0,0,0,1.594-1.078V24.513a1.161,1.161,0,0,0-.706-1.07c-3.525-1.5-6.616-.356-9.6.753-2.8,1.039-5.444,2.021-8.324.734a.939.939,0,0,0-1.322.857v.035a.963.963,0,0,0-.025.217V44.59a2,2,0,0,0-.744.709L20.4,61.377l-3.234-5.255a2.006,2.006,0,0,0-3.416,0L.3,77.985a2.006,2.006,0,0,0,1.708,3.057H61.995A2.006,2.006,0,0,0,63.7,77.985ZM32.939,27.12c3.04.834,5.77-.18,8.421-1.164,2.623-.974,5.108-1.9,7.779-.955v9.123c-3.049-.836-5.782.179-8.433,1.162-2.619.972-5.1,1.894-7.768.956ZM11.66,79.164l3.221-5.236a.939.939,0,1,0-1.6-.984l-3.827,6.22H2.005A.128.128,0,0,1,1.9,78.97L15.349,57.106a.128.128,0,0,1,.218,0L19.3,63.169l-3.725,6.054a.939.939,0,0,0,1.6.984l14.72-23.924a.128.128,0,0,1,.217,0L52.34,79.164Z" transform="translate(0 -22.723)"/></g></g></svg>