<svg xmlns="http://www.w3.org/2000/svg" width="52.739" height="45.561" viewBox="0 0 52.739 45.561"><defs><style>.a{fill:#0e5d08;}</style></defs><g transform="translate(0 -34.571)"><g transform="translate(0 34.571)"><path class="a" d="M.011,67.578A12.588,12.588,0,1,0,8.5,55.71c2.825-16.2,15.461-26.653,3.748-18.053C-.741,47.194,0,67.194.012,67.561.012,67.566.011,67.572.011,67.578Z" transform="translate(0 -34.571)"/><path class="a" d="M266.072,67.578A12.588,12.588,0,1,0,274.56,55.71c2.825-16.2,15.461-26.653,3.748-18.053-12.988,9.536-12.25,29.537-12.235,29.9C266.073,67.566,266.072,67.572,266.072,67.578Z" transform="translate(-238.442 -34.571)"/></g></g></svg>