<svg xmlns="http://www.w3.org/2000/svg" width="40" height="40" viewBox="0 0 40 40"><defs><style>.a{fill:#fff;}</style></defs><path class="a" d="M20.922,22.907a1.25,1.25,0,0,1-1.767,0l-.988-.987-3.8,3.7H25.679l-3.8-3.674Zm6.707-8.532h-15.2L20,21.875ZM11.25,15V25.625h1.288L17.243,21ZM27.538,25.625H28.75V15.08L22.832,21ZM20,0A20,20,0,1,0,40,20,20,20,0,0,0,20,0ZM30,25.625a1.25,1.25,0,0,1-1.25,1.25H11.25A1.25,1.25,0,0,1,10,25.625V14.375a1.25,1.25,0,0,1,1.25-1.25h17.5A1.25,1.25,0,0,1,30,14.375Z"/></svg>