<svg xmlns="http://www.w3.org/2000/svg" width="40" height="40" viewBox="0 0 40 40"><defs><style>.a{fill:#fff;}</style></defs><g transform="translate(3.999 -4)"><path class="a" d="M20,0A20,20,0,1,0,40,20,20,20,0,0,0,20,0ZM30.562,29.182l-1.6,1.6a2.952,2.952,0,0,1-1.15.464,18.888,18.888,0,0,1-19.06-19.1,2.981,2.981,0,0,1,.469-1.1l1.6-1.6a2.675,2.675,0,0,1,2.5-.591l.337.112A3.164,3.164,0,0,1,15.487,10.9l.806,2.956a2.9,2.9,0,0,1-.662,2.532l-1.069,1.069a11.358,11.358,0,0,0,7.986,7.989l1.069-1.07a2.9,2.9,0,0,1,2.532-.665l2.956.808a3.168,3.168,0,0,1,1.934,1.826l.112.342A2.678,2.678,0,0,1,30.562,29.182Z" transform="translate(-4 4)"/></g></svg>